<svg width="800" height="200" viewBox="0 0 800 200" xmlns="http://www.w3.org/2000/svg">
  <defs>
    <style>
      @import url('https://fonts.googleapis.com/css2?family=Fira+Code:wght@400;700&amp;display=swap');
    </style>
    <linearGradient id="areaGrad" x1="0" y1="0" x2="0" y2="1">
      <stop offset="0%" stop-color="#FFD93D" stop-opacity="0.35"/>
      <stop offset="100%" stop-color="#FFD93D" stop-opacity="0"/>
    </linearGradient>
    <filter id="lineGlow">
      <feGaussianBlur stdDeviation="2" result="blur"/>
      <feMerge><feMergeNode in="blur"/><feMergeNode in="SourceGraphic"/></feMerge>
    </filter>
  </defs>

  <!-- Background -->
  <rect x="0" y="0" width="800" height="200" fill="#0D1117" rx="12"/>
  <rect x="0" y="0" width="800" height="200" fill="#161B22" rx="12" opacity="0.6"/>

  <!-- Title -->
  <text x="42" y="22" font-family="'Fira Code',monospace" font-size="13" font-weight="700" fill="#FFD93D">🍌 Contribution Graph</text>
  <text x="780" y="22" text-anchor="end" font-family="'Fira Code',monospace" font-size="11" fill="#8b949e">749 contributions this year</text>

  <!-- Grid lines -->
  <line x1="42" y1="162.0" x2="780" y2="162.0" stroke="#21262d" stroke-width="1"/><line x1="42" y1="132.8" x2="780" y2="132.8" stroke="#21262d" stroke-width="1"/><line x1="42" y1="103.5" x2="780" y2="103.5" stroke="#21262d" stroke-width="1"/><line x1="42" y1="74.3" x2="780" y2="74.3" stroke="#21262d" stroke-width="1"/><line x1="42" y1="45.0" x2="780" y2="45.0" stroke="#21262d" stroke-width="1"/>

  <!-- Area fill -->
  <path d="M 42,162 L 42.0,135.1 L 56.2,144.5 L 70.4,155.3 L 84.6,128.4 L 98.8,149.9 L 113.0,151.2 L 127.2,151.2 L 141.3,149.9 L 155.5,145.9 L 169.7,151.2 L 183.9,148.6 L 198.1,152.6 L 212.3,158.0 L 226.5,162.0 L 240.7,159.3 L 254.9,159.3 L 269.1,160.7 L 283.3,162.0 L 297.5,159.3 L 311.7,162.0 L 325.8,162.0 L 340.0,140.5 L 354.2,151.2 L 368.4,147.2 L 382.6,141.8 L 396.8,143.2 L 411.0,149.9 L 425.2,147.2 L 439.4,159.3 L 453.6,151.2 L 467.8,144.5 L 482.0,159.3 L 496.2,152.6 L 510.3,153.9 L 524.5,160.7 L 538.7,140.5 L 552.9,71.9 L 567.1,149.9 L 581.3,151.2 L 595.5,136.4 L 609.7,102.8 L 623.9,148.6 L 638.1,90.7 L 652.3,152.6 L 666.5,45.0 L 680.7,137.8 L 694.8,147.2 L 709.0,97.4 L 723.2,133.8 L 737.4,149.9 L 751.6,132.4 L 765.8,120.3 L 780.0,159.3 L 780,162 Z" fill="url(#areaGrad)"/>

  <!-- Line -->
  <polyline points="42.0,135.1 56.2,144.5 70.4,155.3 84.6,128.4 98.8,149.9 113.0,151.2 127.2,151.2 141.3,149.9 155.5,145.9 169.7,151.2 183.9,148.6 198.1,152.6 212.3,158.0 226.5,162.0 240.7,159.3 254.9,159.3 269.1,160.7 283.3,162.0 297.5,159.3 311.7,162.0 325.8,162.0 340.0,140.5 354.2,151.2 368.4,147.2 382.6,141.8 396.8,143.2 411.0,149.9 425.2,147.2 439.4,159.3 453.6,151.2 467.8,144.5 482.0,159.3 496.2,152.6 510.3,153.9 524.5,160.7 538.7,140.5 552.9,71.9 567.1,149.9 581.3,151.2 595.5,136.4 609.7,102.8 623.9,148.6 638.1,90.7 652.3,152.6 666.5,45.0 680.7,137.8 694.8,147.2 709.0,97.4 723.2,133.8 737.4,149.9 751.6,132.4 765.8,120.3 780.0,159.3" fill="none" stroke="#FFD93D" stroke-width="2" stroke-linejoin="round" stroke-linecap="round" filter="url(#lineGlow)"/>

  <!-- Peak dot + label -->
  <circle cx="666.5" cy="45.0" r="4" fill="#FFD93D" filter="url(#lineGlow)"/>
  <rect x="648.5" y="23.0" width="36" height="14" rx="3" fill="#FFD93D"/>
  <text x="666.5" y="33.0" text-anchor="middle" font-family="'Fira Code',monospace" font-size="8" font-weight="700" fill="#0D1117">87/wk</text>

  <!-- Y axis -->
  <text x="36" y="162.0" text-anchor="end" font-family="'Fira Code',monospace" font-size="9" fill="#8b949e" dominant-baseline="middle">0</text><text x="36" y="102.8" text-anchor="end" font-family="'Fira Code',monospace" font-size="9" fill="#8b949e" dominant-baseline="middle">44</text><text x="36" y="45.0" text-anchor="end" font-family="'Fira Code',monospace" font-size="9" fill="#8b949e" dominant-baseline="middle">87</text>

  <!-- X axis labels -->
  <text x="42.0" y="176" text-anchor="middle" font-family="'Fira Code',monospace" font-size="9" fill="#8b949e">Mar</text><text x="56.2" y="176" text-anchor="middle" font-family="'Fira Code',monospace" font-size="9" fill="#8b949e">Apr</text><text x="113.0" y="176" text-anchor="middle" font-family="'Fira Code',monospace" font-size="9" fill="#8b949e">May</text><text x="169.7" y="176" text-anchor="middle" font-family="'Fira Code',monospace" font-size="9" fill="#8b949e">Jun</text><text x="240.7" y="176" text-anchor="middle" font-family="'Fira Code',monospace" font-size="9" fill="#8b949e">Jul</text><text x="297.5" y="176" text-anchor="middle" font-family="'Fira Code',monospace" font-size="9" fill="#8b949e">Aug</text><text x="368.4" y="176" text-anchor="middle" font-family="'Fira Code',monospace" font-size="9" fill="#8b949e">Sep</text><text x="425.2" y="176" text-anchor="middle" font-family="'Fira Code',monospace" font-size="9" fill="#8b949e">Oct</text><text x="482.0" y="176" text-anchor="middle" font-family="'Fira Code',monospace" font-size="9" fill="#8b949e">Nov</text><text x="552.9" y="176" text-anchor="middle" font-family="'Fira Code',monospace" font-size="9" fill="#8b949e">Dec</text><text x="609.7" y="176" text-anchor="middle" font-family="'Fira Code',monospace" font-size="9" fill="#8b949e">Jan</text><text x="666.5" y="176" text-anchor="middle" font-family="'Fira Code',monospace" font-size="9" fill="#8b949e">Feb</text><text x="723.2" y="176" text-anchor="middle" font-family="'Fira Code',monospace" font-size="9" fill="#8b949e">Mar</text>

  <!-- Axes -->
  <line x1="42" y1="45" x2="42" y2="162" stroke="#30363d" stroke-width="1"/>
  <line x1="42" y1="162" x2="780" y2="162" stroke="#30363d" stroke-width="1"/>
</svg>