<svg width="800" height="200" viewBox="0 0 800 200" xmlns="http://www.w3.org/2000/svg">
  <defs>
    <style>
      @import url('https://fonts.googleapis.com/css2?family=Fira+Code:wght@400;700&amp;display=swap');
    </style>
    <linearGradient id="areaGrad" x1="0" y1="0" x2="0" y2="1">
      <stop offset="0%" stop-color="#FFD93D" stop-opacity="0.35"/>
      <stop offset="100%" stop-color="#FFD93D" stop-opacity="0"/>
    </linearGradient>
    <filter id="lineGlow">
      <feGaussianBlur stdDeviation="2" result="blur"/>
      <feMerge><feMergeNode in="blur"/><feMergeNode in="SourceGraphic"/></feMerge>
    </filter>
  </defs>

  <!-- Background -->
  <rect x="0" y="0" width="800" height="200" fill="#0D1117" rx="12"/>
  <rect x="0" y="0" width="800" height="200" fill="#161B22" rx="12" opacity="0.6"/>

  <!-- Title -->
  <text x="42" y="22" font-family="'Fira Code',monospace" font-size="13" font-weight="700" fill="#FFD93D">🍌 Contribution Graph</text>
  <text x="780" y="22" text-anchor="end" font-family="'Fira Code',monospace" font-size="11" fill="#8b949e">828 contributions this year</text>

  <!-- Grid lines -->
  <line x1="42" y1="162.0" x2="780" y2="162.0" stroke="#21262d" stroke-width="1"/><line x1="42" y1="132.8" x2="780" y2="132.8" stroke="#21262d" stroke-width="1"/><line x1="42" y1="103.5" x2="780" y2="103.5" stroke="#21262d" stroke-width="1"/><line x1="42" y1="74.3" x2="780" y2="74.3" stroke="#21262d" stroke-width="1"/><line x1="42" y1="45.0" x2="780" y2="45.0" stroke="#21262d" stroke-width="1"/>

  <!-- Area fill -->
  <path d="M 42,162 L 42.0,151.2 L 56.2,151.2 L 70.4,149.9 L 84.6,145.9 L 98.8,151.2 L 113.0,148.6 L 127.2,152.6 L 141.3,158.0 L 155.5,162.0 L 169.7,159.3 L 183.9,159.3 L 198.1,160.7 L 212.3,162.0 L 226.5,159.3 L 240.7,162.0 L 254.9,162.0 L 269.1,140.5 L 283.3,151.2 L 297.5,147.2 L 311.7,141.8 L 325.8,143.2 L 340.0,149.9 L 354.2,147.2 L 368.4,159.3 L 382.6,151.2 L 396.8,144.5 L 411.0,159.3 L 425.2,152.6 L 439.4,153.9 L 453.6,160.7 L 467.8,140.5 L 482.0,71.9 L 496.2,149.9 L 510.3,151.2 L 524.5,136.4 L 538.7,102.8 L 552.9,148.6 L 567.1,61.1 L 581.3,152.6 L 595.5,45.0 L 609.7,136.4 L 623.9,147.2 L 638.1,97.4 L 652.3,133.8 L 666.5,149.9 L 680.7,132.4 L 694.8,120.3 L 709.0,127.0 L 723.2,151.2 L 737.4,147.2 L 751.6,106.9 L 765.8,158.0 L 780.0,106.9 L 780,162 Z" fill="url(#areaGrad)"/>

  <!-- Line -->
  <polyline points="42.0,151.2 56.2,151.2 70.4,149.9 84.6,145.9 98.8,151.2 113.0,148.6 127.2,152.6 141.3,158.0 155.5,162.0 169.7,159.3 183.9,159.3 198.1,160.7 212.3,162.0 226.5,159.3 240.7,162.0 254.9,162.0 269.1,140.5 283.3,151.2 297.5,147.2 311.7,141.8 325.8,143.2 340.0,149.9 354.2,147.2 368.4,159.3 382.6,151.2 396.8,144.5 411.0,159.3 425.2,152.6 439.4,153.9 453.6,160.7 467.8,140.5 482.0,71.9 496.2,149.9 510.3,151.2 524.5,136.4 538.7,102.8 552.9,148.6 567.1,61.1 581.3,152.6 595.5,45.0 609.7,136.4 623.9,147.2 638.1,97.4 652.3,133.8 666.5,149.9 680.7,132.4 694.8,120.3 709.0,127.0 723.2,151.2 737.4,147.2 751.6,106.9 765.8,158.0 780.0,106.9" fill="none" stroke="#FFD93D" stroke-width="2" stroke-linejoin="round" stroke-linecap="round" filter="url(#lineGlow)"/>

  <!-- Peak dot + label -->
  <circle cx="595.5" cy="45.0" r="4" fill="#FFD93D" filter="url(#lineGlow)"/>
  <rect x="577.5" y="23.0" width="36" height="14" rx="3" fill="#FFD93D"/>
  <text x="595.5" y="33.0" text-anchor="middle" font-family="'Fira Code',monospace" font-size="8" font-weight="700" fill="#0D1117">87/wk</text>

  <!-- Y axis -->
  <text x="36" y="162.0" text-anchor="end" font-family="'Fira Code',monospace" font-size="9" fill="#8b949e" dominant-baseline="middle">0</text><text x="36" y="102.8" text-anchor="end" font-family="'Fira Code',monospace" font-size="9" fill="#8b949e" dominant-baseline="middle">44</text><text x="36" y="45.0" text-anchor="end" font-family="'Fira Code',monospace" font-size="9" fill="#8b949e" dominant-baseline="middle">87</text>

  <!-- X axis labels -->
  <text x="42.0" y="176" text-anchor="middle" font-family="'Fira Code',monospace" font-size="9" fill="#8b949e">May</text><text x="98.8" y="176" text-anchor="middle" font-family="'Fira Code',monospace" font-size="9" fill="#8b949e">Jun</text><text x="169.7" y="176" text-anchor="middle" font-family="'Fira Code',monospace" font-size="9" fill="#8b949e">Jul</text><text x="226.5" y="176" text-anchor="middle" font-family="'Fira Code',monospace" font-size="9" fill="#8b949e">Aug</text><text x="297.5" y="176" text-anchor="middle" font-family="'Fira Code',monospace" font-size="9" fill="#8b949e">Sep</text><text x="354.2" y="176" text-anchor="middle" font-family="'Fira Code',monospace" font-size="9" fill="#8b949e">Oct</text><text x="411.0" y="176" text-anchor="middle" font-family="'Fira Code',monospace" font-size="9" fill="#8b949e">Nov</text><text x="482.0" y="176" text-anchor="middle" font-family="'Fira Code',monospace" font-size="9" fill="#8b949e">Dec</text><text x="538.7" y="176" text-anchor="middle" font-family="'Fira Code',monospace" font-size="9" fill="#8b949e">Jan</text><text x="595.5" y="176" text-anchor="middle" font-family="'Fira Code',monospace" font-size="9" fill="#8b949e">Feb</text><text x="652.3" y="176" text-anchor="middle" font-family="'Fira Code',monospace" font-size="9" fill="#8b949e">Mar</text><text x="723.2" y="176" text-anchor="middle" font-family="'Fira Code',monospace" font-size="9" fill="#8b949e">Apr</text><text x="780.0" y="176" text-anchor="middle" font-family="'Fira Code',monospace" font-size="9" fill="#8b949e">May</text>

  <!-- Axes -->
  <line x1="42" y1="45" x2="42" y2="162" stroke="#30363d" stroke-width="1"/>
  <line x1="42" y1="162" x2="780" y2="162" stroke="#30363d" stroke-width="1"/>
</svg>